<?xml version="1.0"?>
<!DOCTYPE svg PUBLIC "-//W3C//DTD SVG 1.1//EN"
"http://www.w3.org/Graphics/SVG/1.1/DTD/svg11.dtd">
<svg version="1.1" xmlns="http://www.w3.org/2000/svg"
xmlns:xlink="http://www.w3.org/1999/xlink"
width="4in" height="4in"
viewBox="0 0 400 400"
preserveAspectRatio="xMidYMid">

<rect x="0" y="0" width="100%" height="100%" fill="none" stroke="black" stroke-width="2" />
<defs>
    
    <g id = "triangle">
        <polygon points="200,100 215,190 185,190" style="stroke-width:3" />
    </g>
    <g id ="polygon" style = "stroke:black">
            <polygon points="200.000 0.000 272.248 13.506 334.739 52.198 379.033 110.852 399.147 181.546 392.365
             254.733 359.603 320.527 305.286 370.043 236.750 396.595 163.250 396.595 94.714 370.043 40.397 320.527
              7.635 254.733 0.853 181.546 20.967 110.852 65.261 52.198 127.752 13.506" style="fill:none;stroke:black;"/>
            <line x1="200.000" y1="0.000" x2="200" y2="200" />
            <line x1="272.248" y1="13.506" x2="200" y2="200" />
            <line x1="334.739" y1="52.198" x2="200" y2="200" />
            <line x1="379.033" y1="110.852" x2="200" y2="200" />
            <line x1="399.147" y1="181.546" x2="200" y2="200" />
            <line x1="392.365" y1="254.733" x2="200" y2="200" />
            <line x1="359.603" y1="320.527" x2="200" y2="200" />
            <line x1="305.286" y1="370.043" x2="200" y2="200" />
            <line x1="236.750" y1="396.595" x2="200" y2="200" />
            <line x1="163.250" y1="396.595" x2="200" y2="200" />
            <line x1="94.714" y1="370.043" x2="200" y2="200" />
            <line x1="40.397" y1="320.527" x2="200" y2="200" />
            <line x1="7.635" y1="254.733" x2="200" y2="200" />
            <line x1="0.853" y1="181.546" x2="200" y2="200" />
            <line x1="20.967" y1="110.852" x2="200" y2="200" />
            <line x1="65.261" y1="52.198" x2="200" y2="200" />
            <line x1="127.752" y1="13.506" x2="200" y2="200" />
            <animateTransform 
                attributeName="transform" 
                attributeType="XML" 
                type="rotate" 
                from="0 200 200" 
                to="360 200 200" 
                dur="5s" 
                repeatCount="indefinite" />
        </g>
    <g id = "beam">
        <line x1="140" y1="100" x2="260" y2="100" transform="rotate(15 200 100)" style="stroke:red;stroke-width:8" />
    </g>
</defs>
    <use xlink:href="#polygon" transform="scale(0.12,0.12) translate(430,370)" />
    <use xlink:href="#polygon" transform="scale(0.12,0.12) translate(1170,570)" />
    <use xlink:href="#beam" transform="scale(0.8,0.8) translate(-50,0)" />
    <use xlink:href="#triangle" fill="purple" transform="scale(0.8,0.8) translate(-50,0)" />

    <use xlink:href="#polygon" transform="scale(0.14,0.14) translate(820,1120)" />
    <use xlink:href="#polygon" transform="scale(0.14,0.14) translate(1630,1340)" />
    <use xlink:href="#beam" transform="scale(1,1) translate(0,100)" />
    <use xlink:href="#triangle" fill="blue" transform="scale(1,1) translate(0,100)" />

    <use xlink:href="#polygon" transform="scale(0.1,0.1) translate(2160,360)" />
    <use xlink:href="#polygon" transform="scale(0.1,0.1) translate(2840,550)" />
    <use xlink:href="#beam" transform="scale(0.6,0.6) translate(250,10)" />
    <use xlink:href="#triangle" fill="green" transform="scale(0.6,0.6) translate(250,10)" />
</svg>
